<svg width="12" height="12" viewBox="0 0 12 12" fill="none" xmlns="http://www.w3.org/2000/svg">
<path d="M10.7408 1.85185V1.25926C10.7408 0.933333 10.4742 0.666666 10.1482 0.666666H8.96304C8.63712 0.666666 8.37045 0.933333 8.37045 1.25926V1.85185H7.77786V4.22222C7.77786 4.54815 8.04453 4.81481 8.37045 4.81481H8.96304V8.96296C8.96304 9.61481 8.42971 10.1481 7.77786 10.1481C7.12601 10.1481 6.59267 9.61481 6.59267 8.96296V3.03704C6.59267 1.72741 5.53193 0.666666 4.2223 0.666666C2.91267 0.666666 1.85193 1.72741 1.85193 3.03704V7.18518H1.25934C0.933415 7.18518 0.666748 7.45185 0.666748 7.77778V10.1481H1.25934V10.7407C1.25934 11.0667 1.52601 11.3333 1.85193 11.3333H3.03712C3.36304 11.3333 3.62971 11.0667 3.62971 10.7407V10.1481H4.2223V7.77778C4.2223 7.45185 3.95564 7.18518 3.62971 7.18518H3.03712V3.03704C3.03712 2.38518 3.57045 1.85185 4.2223 1.85185C4.87416 1.85185 5.40749 2.38518 5.40749 3.03704V8.96296C5.40749 10.2726 6.46823 11.3333 7.77786 11.3333C9.08749 11.3333 10.1482 10.2726 10.1482 8.96296V4.81481H10.7408C11.0667 4.81481 11.3334 4.54815 11.3334 4.22222V1.85185H10.7408Z" fill="#0D3883"/>
</svg>
